<svg id="visual" viewBox="0 0 900 600" width="900" height="600" xmlns="http://www.w3.org/2000/svg" xmlns:xlink="http://www.w3.org/1999/xlink" version="1.1"><rect x="0" y="0" width="900" height="600" fill="#001220"></rect><path d="M0 292L7.5 267.3C15 242.7 30 193.3 45 194.2C60 195 75 246 90 257.3C105 268.7 120 240.3 135 207C150 173.7 165 135.3 180 113.8C195 92.3 210 87.7 225 85.3C240 83 255 83 270 99.5C285 116 300 149 315 154.7C330 160.3 345 138.7 360 159C375 179.3 390 241.7 405 259.8C420 278 435 252 450 222.8C465 193.7 480 161.3 495 161.7C510 162 525 195 540 191.7C555 188.3 570 148.7 585 119C600 89.3 615 69.7 630 65C645 60.3 660 70.7 675 76.5C690 82.3 705 83.7 720 92.7C735 101.7 750 118.3 765 140.8C780 163.3 795 191.7 810 188C825 184.3 840 148.7 855 158.5C870 168.3 885 223.7 892.5 251.3L900 279L900 601L892.5 601C885 601 870 601 855 601C840 601 825 601 810 601C795 601 780 601 765 601C750 601 735 601 720 601C705 601 690 601 675 601C660 601 645 601 630 601C615 601 600 601 585 601C570 601 555 601 540 601C525 601 510 601 495 601C480 601 465 601 450 601C435 601 420 601 405 601C390 601 375 601 360 601C345 601 330 601 315 601C300 601 285 601 270 601C255 601 240 601 225 601C210 601 195 601 180 601C165 601 150 601 135 601C120 601 105 601 90 601C75 601 60 601 45 601C30 601 15 601 7.5 601L0 601Z" fill="#001122"></path><path d="M0 115L7.5 123.5C15 132 30 149 45 164.2C60 179.3 75 192.7 90 182.2C105 171.7 120 137.3 135 121.5C150 105.7 165 108.3 180 123C195 137.7 210 164.3 225 159.2C240 154 255 117 270 114.2C285 111.3 300 142.7 315 172.3C330 202 345 230 360 255C375 280 390 302 405 304.2C420 306.3 435 288.7 450 269.8C465 251 480 231 495 230.7C510 230.3 525 249.7 540 228.7C555 207.7 570 146.3 585 142C600 137.7 615 190.3 630 204.5C645 218.7 660 194.3 675 206.8C690 219.3 705 268.7 720 272.7C735 276.7 750 235.3 765 220.2C780 205 795 216 810 210.3C825 204.7 840 182.3 855 164.8C870 147.3 885 134.7 892.5 128.3L900 122L900 601L892.5 601C885 601 870 601 855 601C840 601 825 601 810 601C795 601 780 601 765 601C750 601 735 601 720 601C705 601 690 601 675 601C660 601 645 601 630 601C615 601 600 601 585 601C570 601 555 601 540 601C525 601 510 601 495 601C480 601 465 601 450 601C435 601 420 601 405 601C390 601 375 601 360 601C345 601 330 601 315 601C300 601 285 601 270 601C255 601 240 601 225 601C210 601 195 601 180 601C165 601 150 601 135 601C120 601 105 601 90 601C75 601 60 601 45 601C30 601 15 601 7.5 601L0 601Z" fill="#131d36"></path><path d="M0 229L7.5 234.3C15 239.7 30 250.3 45 252.5C60 254.7 75 248.3 90 253.7C105 259 120 276 135 293.8C150 311.7 165 330.3 180 325.5C195 320.7 210 292.3 225 257.2C240 222 255 180 270 159.7C285 139.3 300 140.7 315 170.7C330 200.7 345 259.3 360 274C375 288.7 390 259.3 405 260.2C420 261 435 292 450 297.2C465 302.3 480 281.7 495 264C510 246.3 525 231.7 540 235.8C555 240 570 263 585 258.3C600 253.7 615 221.3 630 230.7C645 240 660 291 675 314.2C690 337.3 705 332.7 720 329C735 325.3 750 322.7 765 321.5C780 320.3 795 320.7 810 323.5C825 326.3 840 331.7 855 301.3C870 271 885 205 892.5 172L900 139L900 601L892.5 601C885 601 870 601 855 601C840 601 825 601 810 601C795 601 780 601 765 601C750 601 735 601 720 601C705 601 690 601 675 601C660 601 645 601 630 601C615 601 600 601 585 601C570 601 555 601 540 601C525 601 510 601 495 601C480 601 465 601 450 601C435 601 420 601 405 601C390 601 375 601 360 601C345 601 330 601 315 601C300 601 285 601 270 601C255 601 240 601 225 601C210 601 195 601 180 601C165 601 150 601 135 601C120 601 105 601 90 601C75 601 60 601 45 601C30 601 15 601 7.5 601L0 601Z" fill="#2c2749"></path><path d="M0 184L7.5 194.2C15 204.3 30 224.7 45 256C60 287.3 75 329.7 90 330.8C105 332 120 292 135 259.2C150 226.3 165 200.7 180 222C195 243.3 210 311.7 225 320C240 328.3 255 276.7 270 248C285 219.3 300 213.7 315 237.7C330 261.7 345 315.3 360 309.3C375 303.3 390 237.7 405 236.3C420 235 435 298 450 310.7C465 323.3 480 285.7 495 287.8C510 290 525 332 540 345.8C555 359.7 570 345.3 585 331.3C600 317.3 615 303.7 630 298.8C645 294 660 298 675 279.3C690 260.7 705 219.3 720 224C735 228.7 750 279.3 765 284.5C780 289.7 795 249.3 810 252.5C825 255.7 840 302.3 855 304.8C870 307.3 885 265.7 892.5 244.8L900 224L900 601L892.5 601C885 601 870 601 855 601C840 601 825 601 810 601C795 601 780 601 765 601C750 601 735 601 720 601C705 601 690 601 675 601C660 601 645 601 630 601C615 601 600 601 585 601C570 601 555 601 540 601C525 601 510 601 495 601C480 601 465 601 450 601C435 601 420 601 405 601C390 601 375 601 360 601C345 601 330 601 315 601C300 601 285 601 270 601C255 601 240 601 225 601C210 601 195 601 180 601C165 601 150 601 135 601C120 601 105 601 90 601C75 601 60 601 45 601C30 601 15 601 7.5 601L0 601Z" fill="#493059"></path><path d="M0 377L7.5 351.3C15 325.7 30 274.3 45 272.2C60 270 75 317 90 321.7C105 326.3 120 288.7 135 280.3C150 272 165 293 180 313C195 333 210 352 225 348.2C240 344.3 255 317.7 270 306.8C285 296 300 301 315 315.5C330 330 345 354 360 343.7C375 333.3 390 288.7 405 293C420 297.3 435 350.7 450 359.5C465 368.3 480 332.7 495 308.7C510 284.7 525 272.3 540 258.3C555 244.3 570 228.7 585 246.8C600 265 615 317 630 337.7C645 358.3 660 347.7 675 341.8C690 336 705 335 720 324.5C735 314 750 294 765 302.5C780 311 795 348 810 362.7C825 377.3 840 369.7 855 347.7C870 325.7 885 289.3 892.5 271.2L900 253L900 601L892.5 601C885 601 870 601 855 601C840 601 825 601 810 601C795 601 780 601 765 601C750 601 735 601 720 601C705 601 690 601 675 601C660 601 645 601 630 601C615 601 600 601 585 601C570 601 555 601 540 601C525 601 510 601 495 601C480 601 465 601 450 601C435 601 420 601 405 601C390 601 375 601 360 601C345 601 330 601 315 601C300 601 285 601 270 601C255 601 240 601 225 601C210 601 195 601 180 601C165 601 150 601 135 601C120 601 105 601 90 601C75 601 60 601 45 601C30 601 15 601 7.5 601L0 601Z" fill="#683764"></path><path d="M0 365L7.5 362C15 359 30 353 45 357C60 361 75 375 90 378C105 381 120 373 135 380.5C150 388 165 411 180 403C195 395 210 356 225 338.2C240 320.3 255 323.7 270 328.7C285 333.7 300 340.3 315 341.3C330 342.3 345 337.7 360 340.2C375 342.7 390 352.3 405 343.2C420 334 435 306 450 315.2C465 324.3 480 370.7 495 389.5C510 408.3 525 399.7 540 387.5C555 375.3 570 359.7 585 337.2C600 314.7 615 285.3 630 292.2C645 299 660 342 675 356.2C690 370.3 705 355.7 720 356.2C735 356.7 750 372.3 765 383.5C780 394.7 795 401.3 810 384.2C825 367 840 326 855 315.5C870 305 885 325 892.5 335L900 345L900 601L892.5 601C885 601 870 601 855 601C840 601 825 601 810 601C795 601 780 601 765 601C750 601 735 601 720 601C705 601 690 601 675 601C660 601 645 601 630 601C615 601 600 601 585 601C570 601 555 601 540 601C525 601 510 601 495 601C480 601 465 601 450 601C435 601 420 601 405 601C390 601 375 601 360 601C345 601 330 601 315 601C300 601 285 601 270 601C255 601 240 601 225 601C210 601 195 601 180 601C165 601 150 601 135 601C120 601 105 601 90 601C75 601 60 601 45 601C30 601 15 601 7.5 601L0 601Z" fill="#893e6a"></path><path d="M0 364L7.5 365C15 366 30 368 45 372.5C60 377 75 384 90 390C105 396 120 401 135 387.2C150 373.3 165 340.7 180 349.8C195 359 210 410 225 415C240 420 255 379 270 364.2C285 349.3 300 360.7 315 359.5C330 358.3 345 344.7 360 354.5C375 364.3 390 397.7 405 396.8C420 396 435 361 450 364.2C465 367.3 480 408.7 495 405.8C510 403 525 356 540 344.5C555 333 570 357 585 376.8C600 396.7 615 412.3 630 420.5C645 428.7 660 429.3 675 408.5C690 387.7 705 345.3 720 339C735 332.7 750 362.3 765 383.5C780 404.7 795 417.3 810 409.8C825 402.3 840 374.7 855 378.5C870 382.3 885 417.7 892.5 435.3L900 453L900 601L892.5 601C885 601 870 601 855 601C840 601 825 601 810 601C795 601 780 601 765 601C750 601 735 601 720 601C705 601 690 601 675 601C660 601 645 601 630 601C615 601 600 601 585 601C570 601 555 601 540 601C525 601 510 601 495 601C480 601 465 601 450 601C435 601 420 601 405 601C390 601 375 601 360 601C345 601 330 601 315 601C300 601 285 601 270 601C255 601 240 601 225 601C210 601 195 601 180 601C165 601 150 601 135 601C120 601 105 601 90 601C75 601 60 601 45 601C30 601 15 601 7.5 601L0 601Z" fill="#a9476b"></path><path d="M0 387L7.5 397.8C15 408.7 30 430.3 45 437C60 443.7 75 435.3 90 419C105 402.7 120 378.3 135 378.7C150 379 165 404 180 415C195 426 210 423 225 421.3C240 419.7 255 419.3 270 430.5C285 441.7 300 464.3 315 465.3C330 466.3 345 445.7 360 435.5C375 425.3 390 425.7 405 420.8C420 416 435 406 450 410.5C465 415 480 434 495 442.8C510 451.7 525 450.3 540 455.2C555 460 570 471 585 459.3C600 447.7 615 413.3 630 413.5C645 413.7 660 448.3 675 459C690 469.7 705 456.3 720 440.2C735 424 750 405 765 411.8C780 418.7 795 451.3 810 457.8C825 464.3 840 444.7 855 422.3C870 400 885 375 892.5 362.5L900 350L900 601L892.5 601C885 601 870 601 855 601C840 601 825 601 810 601C795 601 780 601 765 601C750 601 735 601 720 601C705 601 690 601 675 601C660 601 645 601 630 601C615 601 600 601 585 601C570 601 555 601 540 601C525 601 510 601 495 601C480 601 465 601 450 601C435 601 420 601 405 601C390 601 375 601 360 601C345 601 330 601 315 601C300 601 285 601 270 601C255 601 240 601 225 601C210 601 195 601 180 601C165 601 150 601 135 601C120 601 105 601 90 601C75 601 60 601 45 601C30 601 15 601 7.5 601L0 601Z" fill="#c55366"></path><path d="M0 474L7.5 473.5C15 473 30 472 45 458.3C60 444.7 75 418.3 90 416.7C105 415 120 438 135 453C150 468 165 475 180 471.2C195 467.3 210 452.7 225 447.7C240 442.7 255 447.3 270 439C285 430.7 300 409.3 315 402.7C330 396 345 404 360 418.7C375 433.3 390 454.7 405 453.8C420 453 435 430 450 430.7C465 431.3 480 455.7 495 472C510 488.3 525 496.7 540 493.3C555 490 570 475 585 455.7C600 436.3 615 412.7 630 410.2C645 407.7 660 426.3 675 432.5C690 438.7 705 432.3 720 440.8C735 449.3 750 472.7 765 474C780 475.3 795 454.7 810 446.2C825 437.7 840 441.3 855 450.7C870 460 885 475 892.5 482.5L900 490L900 601L892.5 601C885 601 870 601 855 601C840 601 825 601 810 601C795 601 780 601 765 601C750 601 735 601 720 601C705 601 690 601 675 601C660 601 645 601 630 601C615 601 600 601 585 601C570 601 555 601 540 601C525 601 510 601 495 601C480 601 465 601 450 601C435 601 420 601 405 601C390 601 375 601 360 601C345 601 330 601 315 601C300 601 285 601 270 601C255 601 240 601 225 601C210 601 195 601 180 601C165 601 150 601 135 601C120 601 105 601 90 601C75 601 60 601 45 601C30 601 15 601 7.5 601L0 601Z" fill="#dd645e"></path><path d="M0 506L7.5 502.7C15 499.3 30 492.7 45 497.8C60 503 75 520 90 522.3C105 524.7 120 512.3 135 510.3C150 508.3 165 516.7 180 512.7C195 508.7 210 492.3 225 486.7C240 481 255 486 270 478.2C285 470.3 300 449.7 315 442.7C330 435.7 345 442.3 360 459.8C375 477.3 390 505.7 405 510.2C420 514.7 435 495.3 450 495C465 494.7 480 513.3 495 506.8C510 500.3 525 468.7 540 461.2C555 453.7 570 470.3 585 484.3C600 498.3 615 509.7 630 503.5C645 497.3 660 473.7 675 472.2C690 470.7 705 491.3 720 499.7C735 508 750 504 765 500.2C780 496.3 795 492.7 810 482.3C825 472 840 455 855 460.5C870 466 885 494 892.5 508L900 522L900 601L892.5 601C885 601 870 601 855 601C840 601 825 601 810 601C795 601 780 601 765 601C750 601 735 601 720 601C705 601 690 601 675 601C660 601 645 601 630 601C615 601 600 601 585 601C570 601 555 601 540 601C525 601 510 601 495 601C480 601 465 601 450 601C435 601 420 601 405 601C390 601 375 601 360 601C345 601 330 601 315 601C300 601 285 601 270 601C255 601 240 601 225 601C210 601 195 601 180 601C165 601 150 601 135 601C120 601 105 601 90 601C75 601 60 601 45 601C30 601 15 601 7.5 601L0 601Z" fill="#ef7953"></path><path d="M0 558L7.5 557.7C15 557.3 30 556.7 45 554.3C60 552 75 548 90 536.7C105 525.3 120 506.7 135 500.8C150 495 165 502 180 511.7C195 521.3 210 533.7 225 534.3C240 535 255 524 270 519.3C285 514.7 300 516.3 315 523.8C330 531.3 345 544.7 360 551.3C375 558 390 558 405 547.7C420 537.3 435 516.7 450 512C465 507.3 480 518.7 495 522C510 525.3 525 520.7 540 525.8C555 531 570 546 585 544.8C600 543.7 615 526.3 630 515.8C645 505.3 660 501.7 675 502.8C690 504 705 510 720 508.8C735 507.7 750 499.3 765 502.8C780 506.3 795 521.7 810 519.2C825 516.7 840 496.3 855 493.3C870 490.3 885 504.7 892.5 511.8L900 519L900 601L892.5 601C885 601 870 601 855 601C840 601 825 601 810 601C795 601 780 601 765 601C750 601 735 601 720 601C705 601 690 601 675 601C660 601 645 601 630 601C615 601 600 601 585 601C570 601 555 601 540 601C525 601 510 601 495 601C480 601 465 601 450 601C435 601 420 601 405 601C390 601 375 601 360 601C345 601 330 601 315 601C300 601 285 601 270 601C255 601 240 601 225 601C210 601 195 601 180 601C165 601 150 601 135 601C120 601 105 601 90 601C75 601 60 601 45 601C30 601 15 601 7.5 601L0 601Z" fill="#f99347"></path><path d="M0 589L7.5 586.2C15 583.3 30 577.7 45 565.7C60 553.7 75 535.3 90 527.2C105 519 120 521 135 527.2C150 533.3 165 543.7 180 547.8C195 552 210 550 225 551.2C240 552.3 255 556.7 270 556.3C285 556 300 551 315 545.2C330 539.3 345 532.7 360 530.8C375 529 390 532 405 530.8C420 529.7 435 524.3 450 530.7C465 537 480 555 495 556.2C510 557.3 525 541.7 540 532.2C555 522.7 570 519.3 585 525.2C600 531 615 546 630 548.5C645 551 660 541 675 536.8C690 532.7 705 534.3 720 537.8C735 541.3 750 546.7 765 552C780 557.3 795 562.7 810 560.8C825 559 840 550 855 545.8C870 541.7 885 542.3 892.5 542.7L900 543L900 601L892.5 601C885 601 870 601 855 601C840 601 825 601 810 601C795 601 780 601 765 601C750 601 735 601 720 601C705 601 690 601 675 601C660 601 645 601 630 601C615 601 600 601 585 601C570 601 555 601 540 601C525 601 510 601 495 601C480 601 465 601 450 601C435 601 420 601 405 601C390 601 375 601 360 601C345 601 330 601 315 601C300 601 285 601 270 601C255 601 240 601 225 601C210 601 195 601 180 601C165 601 150 601 135 601C120 601 105 601 90 601C75 601 60 601 45 601C30 601 15 601 7.5 601L0 601Z" fill="#fcaf3c"></path></svg>