<svg id="visual" viewBox="0 0 960 540" width="960" height="540" xmlns="http://www.w3.org/2000/svg" xmlns:xlink="http://www.w3.org/1999/xlink" version="1.1"><rect x="0" y="0" width="960" height="540" fill="#001220"></rect><path d="M0 264L10.7 244.3C21.3 224.7 42.7 185.3 64 182.2C85.3 179 106.7 212 128 209C149.3 206 170.7 167 192 163.2C213.3 159.3 234.7 190.7 256 198.7C277.3 206.7 298.7 191.3 320 182.7C341.3 174 362.7 172 384 181.3C405.3 190.7 426.7 211.3 448 218.3C469.3 225.3 490.7 218.7 512 209.2C533.3 199.7 554.7 187.3 576 173.5C597.3 159.7 618.7 144.3 640 156.3C661.3 168.3 682.7 207.7 704 216C725.3 224.3 746.7 201.7 768 202.5C789.3 203.3 810.7 227.7 832 224.8C853.3 222 874.7 192 896 192.7C917.3 193.3 938.7 224.7 949.3 240.3L960 256L960 541L949.3 541C938.7 541 917.3 541 896 541C874.7 541 853.3 541 832 541C810.7 541 789.3 541 768 541C746.7 541 725.3 541 704 541C682.7 541 661.3 541 640 541C618.7 541 597.3 541 576 541C554.7 541 533.3 541 512 541C490.7 541 469.3 541 448 541C426.7 541 405.3 541 384 541C362.7 541 341.3 541 320 541C298.7 541 277.3 541 256 541C234.7 541 213.3 541 192 541C170.7 541 149.3 541 128 541C106.7 541 85.3 541 64 541C42.7 541 21.3 541 10.7 541L0 541Z" fill="#fcaf3c"></path><path d="M0 235L10.7 240.7C21.3 246.3 42.7 257.7 64 248C85.3 238.3 106.7 207.7 128 197.7C149.3 187.7 170.7 198.3 192 216C213.3 233.7 234.7 258.3 256 270.7C277.3 283 298.7 283 320 281.2C341.3 279.3 362.7 275.7 384 278.2C405.3 280.7 426.7 289.3 448 281.8C469.3 274.3 490.7 250.7 512 234.7C533.3 218.7 554.7 210.3 576 212.3C597.3 214.3 618.7 226.7 640 232.2C661.3 237.7 682.7 236.3 704 233.7C725.3 231 746.7 227 768 222.8C789.3 218.7 810.7 214.3 832 221.7C853.3 229 874.7 248 896 241.3C917.3 234.7 938.7 202.3 949.3 186.2L960 170L960 541L949.3 541C938.7 541 917.3 541 896 541C874.7 541 853.3 541 832 541C810.7 541 789.3 541 768 541C746.7 541 725.3 541 704 541C682.7 541 661.3 541 640 541C618.7 541 597.3 541 576 541C554.7 541 533.3 541 512 541C490.7 541 469.3 541 448 541C426.7 541 405.3 541 384 541C362.7 541 341.3 541 320 541C298.7 541 277.3 541 256 541C234.7 541 213.3 541 192 541C170.7 541 149.3 541 128 541C106.7 541 85.3 541 64 541C42.7 541 21.3 541 10.7 541L0 541Z" fill="#f6894c"></path><path d="M0 308L10.7 305.5C21.3 303 42.7 298 64 292.2C85.3 286.3 106.7 279.7 128 268.2C149.3 256.7 170.7 240.3 192 233.5C213.3 226.7 234.7 229.3 256 245.8C277.3 262.3 298.7 292.7 320 294.8C341.3 297 362.7 271 384 254.5C405.3 238 426.7 231 448 244C469.3 257 490.7 290 512 304C533.3 318 554.7 313 576 300.3C597.3 287.7 618.7 267.3 640 265.8C661.3 264.3 682.7 281.7 704 283.2C725.3 284.7 746.7 270.3 768 272.3C789.3 274.3 810.7 292.7 832 290C853.3 287.3 874.7 263.7 896 256C917.3 248.3 938.7 256.7 949.3 260.8L960 265L960 541L949.3 541C938.7 541 917.3 541 896 541C874.7 541 853.3 541 832 541C810.7 541 789.3 541 768 541C746.7 541 725.3 541 704 541C682.7 541 661.3 541 640 541C618.7 541 597.3 541 576 541C554.7 541 533.3 541 512 541C490.7 541 469.3 541 448 541C426.7 541 405.3 541 384 541C362.7 541 341.3 541 320 541C298.7 541 277.3 541 256 541C234.7 541 213.3 541 192 541C170.7 541 149.3 541 128 541C106.7 541 85.3 541 64 541C42.7 541 21.3 541 10.7 541L0 541Z" fill="#e2695c"></path><path d="M0 353L10.7 352.2C21.3 351.3 42.7 349.7 64 339.8C85.3 330 106.7 312 128 311.8C149.3 311.7 170.7 329.3 192 340.2C213.3 351 234.7 355 256 356.2C277.3 357.3 298.7 355.7 320 354.8C341.3 354 362.7 354 384 344.8C405.3 335.7 426.7 317.3 448 306.5C469.3 295.7 490.7 292.3 512 292.7C533.3 293 554.7 297 576 305.3C597.3 313.7 618.7 326.3 640 327.2C661.3 328 682.7 317 704 315.3C725.3 313.7 746.7 321.3 768 328C789.3 334.7 810.7 340.3 832 334.8C853.3 329.3 874.7 312.7 896 307.2C917.3 301.7 938.7 307.3 949.3 310.2L960 313L960 541L949.3 541C938.7 541 917.3 541 896 541C874.7 541 853.3 541 832 541C810.7 541 789.3 541 768 541C746.7 541 725.3 541 704 541C682.7 541 661.3 541 640 541C618.7 541 597.3 541 576 541C554.7 541 533.3 541 512 541C490.7 541 469.3 541 448 541C426.7 541 405.3 541 384 541C362.7 541 341.3 541 320 541C298.7 541 277.3 541 256 541C234.7 541 213.3 541 192 541C170.7 541 149.3 541 128 541C106.7 541 85.3 541 64 541C42.7 541 21.3 541 10.7 541L0 541Z" fill="#c25167"></path><path d="M0 302L10.7 307.5C21.3 313 42.7 324 64 329.7C85.3 335.3 106.7 335.7 128 332.7C149.3 329.7 170.7 323.3 192 319C213.3 314.7 234.7 312.3 256 312.2C277.3 312 298.7 314 320 327C341.3 340 362.7 364 384 370.8C405.3 377.7 426.7 367.3 448 355.7C469.3 344 490.7 331 512 327.8C533.3 324.7 554.7 331.3 576 334.8C597.3 338.3 618.7 338.7 640 336.8C661.3 335 682.7 331 704 334C725.3 337 746.7 347 768 346.2C789.3 345.3 810.7 333.7 832 328.7C853.3 323.7 874.7 325.3 896 332.8C917.3 340.3 938.7 353.7 949.3 360.3L960 367L960 541L949.3 541C938.7 541 917.3 541 896 541C874.7 541 853.3 541 832 541C810.7 541 789.3 541 768 541C746.7 541 725.3 541 704 541C682.7 541 661.3 541 640 541C618.7 541 597.3 541 576 541C554.7 541 533.3 541 512 541C490.7 541 469.3 541 448 541C426.7 541 405.3 541 384 541C362.7 541 341.3 541 320 541C298.7 541 277.3 541 256 541C234.7 541 213.3 541 192 541C170.7 541 149.3 541 128 541C106.7 541 85.3 541 64 541C42.7 541 21.3 541 10.7 541L0 541Z" fill="#99426b"></path><path d="M0 393L10.7 390.8C21.3 388.7 42.7 384.3 64 387C85.3 389.7 106.7 399.3 128 399.5C149.3 399.7 170.7 390.3 192 391C213.3 391.7 234.7 402.3 256 404C277.3 405.7 298.7 398.3 320 397.2C341.3 396 362.7 401 384 399.3C405.3 397.7 426.7 389.3 448 385.7C469.3 382 490.7 383 512 381.2C533.3 379.3 554.7 374.7 576 380.7C597.3 386.7 618.7 403.3 640 400C661.3 396.7 682.7 373.3 704 369C725.3 364.7 746.7 379.3 768 384.3C789.3 389.3 810.7 384.7 832 379C853.3 373.3 874.7 366.7 896 362.7C917.3 358.7 938.7 357.3 949.3 356.7L960 356L960 541L949.3 541C938.7 541 917.3 541 896 541C874.7 541 853.3 541 832 541C810.7 541 789.3 541 768 541C746.7 541 725.3 541 704 541C682.7 541 661.3 541 640 541C618.7 541 597.3 541 576 541C554.7 541 533.3 541 512 541C490.7 541 469.3 541 448 541C426.7 541 405.3 541 384 541C362.7 541 341.3 541 320 541C298.7 541 277.3 541 256 541C234.7 541 213.3 541 192 541C170.7 541 149.3 541 128 541C106.7 541 85.3 541 64 541C42.7 541 21.3 541 10.7 541L0 541Z" fill="#6c3865"></path><path d="M0 445L10.7 434.7C21.3 424.3 42.7 403.7 64 394C85.3 384.3 106.7 385.7 128 390C149.3 394.3 170.7 401.7 192 403.3C213.3 405 234.7 401 256 407.7C277.3 414.3 298.7 431.7 320 432C341.3 432.3 362.7 415.7 384 413.7C405.3 411.7 426.7 424.3 448 427.5C469.3 430.7 490.7 424.3 512 425.7C533.3 427 554.7 436 576 434.2C597.3 432.3 618.7 419.7 640 420.3C661.3 421 682.7 435 704 433.7C725.3 432.3 746.7 415.7 768 411.8C789.3 408 810.7 417 832 423.7C853.3 430.3 874.7 434.7 896 432.2C917.3 429.7 938.7 420.3 949.3 415.7L960 411L960 541L949.3 541C938.7 541 917.3 541 896 541C874.7 541 853.3 541 832 541C810.7 541 789.3 541 768 541C746.7 541 725.3 541 704 541C682.7 541 661.3 541 640 541C618.7 541 597.3 541 576 541C554.7 541 533.3 541 512 541C490.7 541 469.3 541 448 541C426.7 541 405.3 541 384 541C362.7 541 341.3 541 320 541C298.7 541 277.3 541 256 541C234.7 541 213.3 541 192 541C170.7 541 149.3 541 128 541C106.7 541 85.3 541 64 541C42.7 541 21.3 541 10.7 541L0 541Z" fill="#412e55"></path><path d="M0 461L10.7 463.2C21.3 465.3 42.7 469.7 64 471.8C85.3 474 106.7 474 128 471.3C149.3 468.7 170.7 463.3 192 462.8C213.3 462.3 234.7 466.7 256 467.3C277.3 468 298.7 465 320 460C341.3 455 362.7 448 384 450.5C405.3 453 426.7 465 448 468.8C469.3 472.7 490.7 468.3 512 460C533.3 451.7 554.7 439.3 576 434.8C597.3 430.3 618.7 433.7 640 439C661.3 444.3 682.7 451.7 704 450C725.3 448.3 746.7 437.7 768 436.8C789.3 436 810.7 445 832 450.8C853.3 456.7 874.7 459.3 896 459C917.3 458.7 938.7 455.3 949.3 453.7L960 452L960 541L949.3 541C938.7 541 917.3 541 896 541C874.7 541 853.3 541 832 541C810.7 541 789.3 541 768 541C746.7 541 725.3 541 704 541C682.7 541 661.3 541 640 541C618.7 541 597.3 541 576 541C554.7 541 533.3 541 512 541C490.7 541 469.3 541 448 541C426.7 541 405.3 541 384 541C362.7 541 341.3 541 320 541C298.7 541 277.3 541 256 541C234.7 541 213.3 541 192 541C170.7 541 149.3 541 128 541C106.7 541 85.3 541 64 541C42.7 541 21.3 541 10.7 541L0 541Z" fill="#1c213e"></path><path d="M0 490L10.7 493.2C21.3 496.3 42.7 502.7 64 505.8C85.3 509 106.7 509 128 503.5C149.3 498 170.7 487 192 482.5C213.3 478 234.7 480 256 486C277.3 492 298.7 502 320 500.3C341.3 498.7 362.7 485.3 384 479.2C405.3 473 426.7 474 448 480C469.3 486 490.7 497 512 499.7C533.3 502.3 554.7 496.7 576 492.8C597.3 489 618.7 487 640 486C661.3 485 682.7 485 704 482C725.3 479 746.7 473 768 476.7C789.3 480.3 810.7 493.7 832 499.3C853.3 505 874.7 503 896 501.3C917.3 499.7 938.7 498.3 949.3 497.7L960 497L960 541L949.3 541C938.7 541 917.3 541 896 541C874.7 541 853.3 541 832 541C810.7 541 789.3 541 768 541C746.7 541 725.3 541 704 541C682.7 541 661.3 541 640 541C618.7 541 597.3 541 576 541C554.7 541 533.3 541 512 541C490.7 541 469.3 541 448 541C426.7 541 405.3 541 384 541C362.7 541 341.3 541 320 541C298.7 541 277.3 541 256 541C234.7 541 213.3 541 192 541C170.7 541 149.3 541 128 541C106.7 541 85.3 541 64 541C42.7 541 21.3 541 10.7 541L0 541Z" fill="#001122"></path></svg>