<svg id="visual" viewBox="0 0 960 540" width="960" height="540" xmlns="http://www.w3.org/2000/svg" xmlns:xlink="http://www.w3.org/1999/xlink" version="1.1"><path d="M0 39L13.3 35.3C26.7 31.7 53.3 24.3 80 22.5C106.7 20.7 133.3 24.3 160 25.3C186.7 26.3 213.3 24.7 240 22C266.7 19.3 293.3 15.7 320 13.8C346.7 12 373.3 12 400 15.5C426.7 19 453.3 26 480 26C506.7 26 533.3 19 560 15.5C586.7 12 613.3 12 640 16.5C666.7 21 693.3 30 720 34.5C746.7 39 773.3 39 800 36.3C826.7 33.7 853.3 28.3 880 26.5C906.7 24.7 933.3 26.3 946.7 27.2L960 28L960 0L946.7 0C933.3 0 906.7 0 880 0C853.3 0 826.7 0 800 0C773.3 0 746.7 0 720 0C693.3 0 666.7 0 640 0C613.3 0 586.7 0 560 0C533.3 0 506.7 0 480 0C453.3 0 426.7 0 400 0C373.3 0 346.7 0 320 0C293.3 0 266.7 0 240 0C213.3 0 186.7 0 160 0C133.3 0 106.7 0 80 0C53.3 0 26.7 0 13.3 0L0 0Z" fill="#001220"></path><path d="M0 60L13.3 57.3C26.7 54.7 53.3 49.3 80 46.7C106.7 44 133.3 44 160 46.7C186.7 49.3 213.3 54.7 240 55.7C266.7 56.7 293.3 53.3 320 48C346.7 42.7 373.3 35.3 400 36.2C426.7 37 453.3 46 480 46C506.7 46 533.3 37 560 35.2C586.7 33.3 613.3 38.7 640 42.3C666.7 46 693.3 48 720 51.7C746.7 55.3 773.3 60.7 800 57.8C826.7 55 853.3 44 880 43C906.7 42 933.3 51 946.7 55.5L960 60L960 26L946.7 25.2C933.3 24.3 906.7 22.7 880 24.5C853.3 26.3 826.7 31.7 800 34.3C773.3 37 746.7 37 720 32.5C693.3 28 666.7 19 640 14.5C613.3 10 586.7 10 560 13.5C533.3 17 506.7 24 480 24C453.3 24 426.7 17 400 13.5C373.3 10 346.7 10 320 11.8C293.3 13.7 266.7 17.3 240 20C213.3 22.7 186.7 24.3 160 23.3C133.3 22.3 106.7 18.7 80 20.5C53.3 22.3 26.7 29.7 13.3 33.3L0 37Z" fill="#00274c"></path><path d="M0 120L13.3 119C26.7 118 53.3 116 80 115C106.7 114 133.3 114 160 128.5C186.7 143 213.3 172 240 169.3C266.7 166.7 293.3 132.3 320 113.3C346.7 94.3 373.3 90.7 400 94.3C426.7 98 453.3 109 480 113.5C506.7 118 533.3 116 560 118.7C586.7 121.3 613.3 128.7 640 142.2C666.7 155.7 693.3 175.3 720 179C746.7 182.7 773.3 170.3 800 174C826.7 177.7 853.3 197.3 880 200C906.7 202.7 933.3 188.3 946.7 181.2L960 174L960 58L946.7 53.5C933.3 49 906.7 40 880 41C853.3 42 826.7 53 800 55.8C773.3 58.7 746.7 53.3 720 49.7C693.3 46 666.7 44 640 40.3C613.3 36.7 586.7 31.3 560 33.2C533.3 35 506.7 44 480 44C453.3 44 426.7 35 400 34.2C373.3 33.3 346.7 40.7 320 46C293.3 51.3 266.7 54.7 240 53.7C213.3 52.7 186.7 47.3 160 44.7C133.3 42 106.7 42 80 44.7C53.3 47.3 26.7 52.7 13.3 55.3L0 58Z" fill="#003b7b"></path><path d="M0 282L13.3 281C26.7 280 53.3 278 80 278.8C106.7 279.7 133.3 283.3 160 295.2C186.7 307 213.3 327 240 324.3C266.7 321.7 293.3 296.3 320 280C346.7 263.7 373.3 256.3 400 254.5C426.7 252.7 453.3 256.3 480 255.5C506.7 254.7 533.3 249.3 560 241.3C586.7 233.3 613.3 222.7 640 222.7C666.7 222.7 693.3 233.3 720 253C746.7 272.7 773.3 301.3 800 306.7C826.7 312 853.3 294 880 275.2C906.7 256.3 933.3 236.7 946.7 226.8L960 217L960 172L946.7 179.2C933.3 186.3 906.7 200.7 880 198C853.3 195.3 826.7 175.7 800 172C773.3 168.3 746.7 180.7 720 177C693.3 173.3 666.7 153.7 640 140.2C613.3 126.7 586.7 119.3 560 116.7C533.3 114 506.7 116 480 111.5C453.3 107 426.7 96 400 92.3C373.3 88.7 346.7 92.3 320 111.3C293.3 130.3 266.7 164.7 240 167.3C213.3 170 186.7 141 160 126.5C133.3 112 106.7 112 80 113C53.3 114 26.7 116 13.3 117L0 118Z" fill="#004daa"></path><path d="M0 303L13.3 304C26.7 305 53.3 307 80 309.8C106.7 312.7 133.3 316.3 160 327.2C186.7 338 213.3 356 240 356C266.7 356 293.3 338 320 321.7C346.7 305.3 373.3 290.7 400 286.2C426.7 281.7 453.3 287.3 480 290.2C506.7 293 533.3 293 560 284.8C586.7 276.7 613.3 260.3 640 258.5C666.7 256.7 693.3 269.3 720 287.3C746.7 305.3 773.3 328.7 800 330.5C826.7 332.3 853.3 312.7 880 292.8C906.7 273 933.3 253 946.7 243L960 233L960 215L946.7 224.8C933.3 234.7 906.7 254.3 880 273.2C853.3 292 826.7 310 800 304.7C773.3 299.3 746.7 270.7 720 251C693.3 231.3 666.7 220.7 640 220.7C613.3 220.7 586.7 231.3 560 239.3C533.3 247.3 506.7 252.7 480 253.5C453.3 254.3 426.7 250.7 400 252.5C373.3 254.3 346.7 261.7 320 278C293.3 294.3 266.7 319.7 240 322.3C213.3 325 186.7 305 160 293.2C133.3 281.3 106.7 277.7 80 276.8C53.3 276 26.7 278 13.3 279L0 280Z" fill="#005fdc"></path><path d="M0 352L13.3 356.5C26.7 361 53.3 370 80 371.8C106.7 373.7 133.3 368.3 160 372.8C186.7 377.3 213.3 391.7 240 389.8C266.7 388 293.3 370 320 364.7C346.7 359.3 373.3 366.7 400 367.5C426.7 368.3 453.3 362.7 480 352.7C506.7 342.7 533.3 328.3 560 323C586.7 317.7 613.3 321.3 640 323.2C666.7 325 693.3 325 720 336.7C746.7 348.3 773.3 371.7 800 382.5C826.7 393.3 853.3 391.7 880 379.2C906.7 366.7 933.3 343.3 946.7 331.7L960 320L960 231L946.7 241C933.3 251 906.7 271 880 290.8C853.3 310.7 826.7 330.3 800 328.5C773.3 326.7 746.7 303.3 720 285.3C693.3 267.3 666.7 254.7 640 256.5C613.3 258.3 586.7 274.7 560 282.8C533.3 291 506.7 291 480 288.2C453.3 285.3 426.7 279.7 400 284.2C373.3 288.7 346.7 303.3 320 319.7C293.3 336 266.7 354 240 354C213.3 354 186.7 336 160 325.2C133.3 314.3 106.7 310.7 80 307.8C53.3 305 26.7 303 13.3 302L0 301Z" fill="#0066f0"></path><path d="M0 417L13.3 419.7C26.7 422.3 53.3 427.7 80 429.5C106.7 431.3 133.3 429.7 160 434.2C186.7 438.7 213.3 449.3 240 443.8C266.7 438.3 293.3 416.7 320 409.5C346.7 402.3 373.3 409.7 400 413.3C426.7 417 453.3 417 480 410.7C506.7 404.3 533.3 391.7 560 388C586.7 384.3 613.3 389.7 640 387.8C666.7 386 693.3 377 720 387C746.7 397 773.3 426 800 434.2C826.7 442.3 853.3 429.7 880 418.8C906.7 408 933.3 399 946.7 394.5L960 390L960 318L946.7 329.7C933.3 341.3 906.7 364.7 880 377.2C853.3 389.7 826.7 391.3 800 380.5C773.3 369.7 746.7 346.3 720 334.7C693.3 323 666.7 323 640 321.2C613.3 319.3 586.7 315.7 560 321C533.3 326.3 506.7 340.7 480 350.7C453.3 360.7 426.7 366.3 400 365.5C373.3 364.7 346.7 357.3 320 362.7C293.3 368 266.7 386 240 387.8C213.3 389.7 186.7 375.3 160 370.8C133.3 366.3 106.7 371.7 80 369.8C53.3 368 26.7 359 13.3 354.5L0 350Z" fill="#0066f0"></path><path d="M0 455L13.3 455.8C26.7 456.7 53.3 458.3 80 460C106.7 461.7 133.3 463.3 160 467C186.7 470.7 213.3 476.3 240 466.5C266.7 456.7 293.3 431.3 320 426.8C346.7 422.3 373.3 438.7 400 445C426.7 451.3 453.3 447.7 480 439.5C506.7 431.3 533.3 418.7 560 416.8C586.7 415 613.3 424 640 424C666.7 424 693.3 415 720 420.3C746.7 425.7 773.3 445.3 800 452.5C826.7 459.7 853.3 454.3 880 447.2C906.7 440 933.3 431 946.7 426.5L960 422L960 388L946.7 392.5C933.3 397 906.7 406 880 416.8C853.3 427.7 826.7 440.3 800 432.2C773.3 424 746.7 395 720 385C693.3 375 666.7 384 640 385.8C613.3 387.7 586.7 382.3 560 386C533.3 389.7 506.7 402.3 480 408.7C453.3 415 426.7 415 400 411.3C373.3 407.7 346.7 400.3 320 407.5C293.3 414.7 266.7 436.3 240 441.8C213.3 447.3 186.7 436.7 160 432.2C133.3 427.7 106.7 429.3 80 427.5C53.3 425.7 26.7 420.3 13.3 417.7L0 415Z" fill="#005fdc"></path><path d="M0 465L13.3 467.8C26.7 470.7 53.3 476.3 80 480.8C106.7 485.3 133.3 488.7 160 492.2C186.7 495.7 213.3 499.3 240 485.8C266.7 472.3 293.3 441.7 320 435.3C346.7 429 373.3 447 400 456C426.7 465 453.3 465 480 458.8C506.7 452.7 533.3 440.3 560 440.3C586.7 440.3 613.3 452.7 640 452.7C666.7 452.7 693.3 440.3 720 441.3C746.7 442.3 773.3 456.7 800 465.7C826.7 474.7 853.3 478.3 880 475.7C906.7 473 933.3 464 946.7 459.5L960 455L960 420L946.7 424.5C933.3 429 906.7 438 880 445.2C853.3 452.3 826.7 457.7 800 450.5C773.3 443.3 746.7 423.7 720 418.3C693.3 413 666.7 422 640 422C613.3 422 586.7 413 560 414.8C533.3 416.7 506.7 429.3 480 437.5C453.3 445.7 426.7 449.3 400 443C373.3 436.7 346.7 420.3 320 424.8C293.3 429.3 266.7 454.7 240 464.5C213.3 474.3 186.7 468.7 160 465C133.3 461.3 106.7 459.7 80 458C53.3 456.3 26.7 454.7 13.3 453.8L0 453Z" fill="#004daa"></path><path d="M0 487L13.3 491.5C26.7 496 53.3 505 80 508.7C106.7 512.3 133.3 510.7 160 511.5C186.7 512.3 213.3 515.7 240 510.2C266.7 504.7 293.3 490.3 320 485.8C346.7 481.3 373.3 486.7 400 492.2C426.7 497.7 453.3 503.3 480 501.7C506.7 500 533.3 491 560 487.3C586.7 483.7 613.3 485.3 640 484.3C666.7 483.3 693.3 479.7 720 482.3C746.7 485 773.3 494 800 497.7C826.7 501.3 853.3 499.7 880 496.2C906.7 492.7 933.3 487.3 946.7 484.7L960 482L960 453L946.7 457.5C933.3 462 906.7 471 880 473.7C853.3 476.3 826.7 472.7 800 463.7C773.3 454.7 746.7 440.3 720 439.3C693.3 438.3 666.7 450.7 640 450.7C613.3 450.7 586.7 438.3 560 438.3C533.3 438.3 506.7 450.7 480 456.8C453.3 463 426.7 463 400 454C373.3 445 346.7 427 320 433.3C293.3 439.7 266.7 470.3 240 483.8C213.3 497.3 186.7 493.7 160 490.2C133.3 486.7 106.7 483.3 80 478.8C53.3 474.3 26.7 468.7 13.3 465.8L0 463Z" fill="#003b7b"></path><path d="M0 519L13.3 520.8C26.7 522.7 53.3 526.3 80 527.3C106.7 528.3 133.3 526.7 160 525.8C186.7 525 213.3 525 240 521.3C266.7 517.7 293.3 510.3 320 509.3C346.7 508.3 373.3 513.7 400 516.3C426.7 519 453.3 519 480 514.5C506.7 510 533.3 501 560 499.3C586.7 497.7 613.3 503.3 640 505.2C666.7 507 693.3 505 720 505.8C746.7 506.7 773.3 510.3 800 514C826.7 517.7 853.3 521.3 880 519.5C906.7 517.7 933.3 510.3 946.7 506.7L960 503L960 480L946.7 482.7C933.3 485.3 906.7 490.7 880 494.2C853.3 497.7 826.7 499.3 800 495.7C773.3 492 746.7 483 720 480.3C693.3 477.7 666.7 481.3 640 482.3C613.3 483.3 586.7 481.7 560 485.3C533.3 489 506.7 498 480 499.7C453.3 501.3 426.7 495.7 400 490.2C373.3 484.7 346.7 479.3 320 483.8C293.3 488.3 266.7 502.7 240 508.2C213.3 513.7 186.7 510.3 160 509.5C133.3 508.7 106.7 510.3 80 506.7C53.3 503 26.7 494 13.3 489.5L0 485Z" fill="#00274c"></path><path d="M0 541L13.3 541C26.7 541 53.3 541 80 541C106.7 541 133.3 541 160 541C186.7 541 213.3 541 240 541C266.7 541 293.3 541 320 541C346.7 541 373.3 541 400 541C426.7 541 453.3 541 480 541C506.7 541 533.3 541 560 541C586.7 541 613.3 541 640 541C666.7 541 693.3 541 720 541C746.7 541 773.3 541 800 541C826.7 541 853.3 541 880 541C906.7 541 933.3 541 946.7 541L960 541L960 501L946.7 504.7C933.3 508.3 906.7 515.7 880 517.5C853.3 519.3 826.7 515.7 800 512C773.3 508.3 746.7 504.7 720 503.8C693.3 503 666.7 505 640 503.2C613.3 501.3 586.7 495.7 560 497.3C533.3 499 506.7 508 480 512.5C453.3 517 426.7 517 400 514.3C373.3 511.7 346.7 506.3 320 507.3C293.3 508.3 266.7 515.7 240 519.3C213.3 523 186.7 523 160 523.8C133.3 524.7 106.7 526.3 80 525.3C53.3 524.3 26.7 520.7 13.3 518.8L0 517Z" fill="#001220"></path></svg>