<svg id="visual" viewBox="0 0 960 540" width="960" height="540" xmlns="http://www.w3.org/2000/svg" xmlns:xlink="http://www.w3.org/1999/xlink" version="1.1"><rect x="0" y="0" width="960" height="540" fill="#001220"></rect><defs><linearGradient id="grad1_0" x1="43.8%" y1="100%" x2="100%" y2="0%"><stop offset="14.444444444444446%" stop-color="#fbae3c" stop-opacity="1"></stop><stop offset="85.55555555555554%" stop-color="#fbae3c" stop-opacity="1"></stop></linearGradient></defs><defs><linearGradient id="grad1_1" x1="43.8%" y1="100%" x2="100%" y2="0%"><stop offset="14.444444444444446%" stop-color="#fbae3c" stop-opacity="1"></stop><stop offset="85.55555555555554%" stop-color="#f48350" stop-opacity="1"></stop></linearGradient></defs><defs><linearGradient id="grad1_2" x1="43.8%" y1="100%" x2="100%" y2="0%"><stop offset="14.444444444444446%" stop-color="#d96162" stop-opacity="1"></stop><stop offset="85.55555555555554%" stop-color="#f48350" stop-opacity="1"></stop></linearGradient></defs><defs><linearGradient id="grad1_3" x1="43.8%" y1="100%" x2="100%" y2="0%"><stop offset="14.444444444444446%" stop-color="#d96162" stop-opacity="1"></stop><stop offset="85.55555555555554%" stop-color="#af4b6d" stop-opacity="1"></stop></linearGradient></defs><defs><linearGradient id="grad1_4" x1="43.8%" y1="100%" x2="100%" y2="0%"><stop offset="14.444444444444446%" stop-color="#7c3e6b" stop-opacity="1"></stop><stop offset="85.55555555555554%" stop-color="#af4b6d" stop-opacity="1"></stop></linearGradient></defs><defs><linearGradient id="grad1_5" x1="43.8%" y1="100%" x2="100%" y2="0%"><stop offset="14.444444444444446%" stop-color="#7c3e6b" stop-opacity="1"></stop><stop offset="85.55555555555554%" stop-color="#49335c" stop-opacity="1"></stop></linearGradient></defs><defs><linearGradient id="grad1_6" x1="43.8%" y1="100%" x2="100%" y2="0%"><stop offset="14.444444444444446%" stop-color="#1d2540" stop-opacity="1"></stop><stop offset="85.55555555555554%" stop-color="#49335c" stop-opacity="1"></stop></linearGradient></defs><defs><linearGradient id="grad1_7" x1="43.8%" y1="100%" x2="100%" y2="0%"><stop offset="14.444444444444446%" stop-color="#1d2540" stop-opacity="1"></stop><stop offset="85.55555555555554%" stop-color="#001220" stop-opacity="1"></stop></linearGradient></defs><defs><linearGradient id="grad2_0" x1="0%" y1="100%" x2="56.3%" y2="0%"><stop offset="14.444444444444446%" stop-color="#fbae3c" stop-opacity="1"></stop><stop offset="85.55555555555554%" stop-color="#fbae3c" stop-opacity="1"></stop></linearGradient></defs><defs><linearGradient id="grad2_1" x1="0%" y1="100%" x2="56.3%" y2="0%"><stop offset="14.444444444444446%" stop-color="#f48350" stop-opacity="1"></stop><stop offset="85.55555555555554%" stop-color="#fbae3c" stop-opacity="1"></stop></linearGradient></defs><defs><linearGradient id="grad2_2" x1="0%" y1="100%" x2="56.3%" y2="0%"><stop offset="14.444444444444446%" stop-color="#f48350" stop-opacity="1"></stop><stop offset="85.55555555555554%" stop-color="#d96162" stop-opacity="1"></stop></linearGradient></defs><defs><linearGradient id="grad2_3" x1="0%" y1="100%" x2="56.3%" y2="0%"><stop offset="14.444444444444446%" stop-color="#af4b6d" stop-opacity="1"></stop><stop offset="85.55555555555554%" stop-color="#d96162" stop-opacity="1"></stop></linearGradient></defs><defs><linearGradient id="grad2_4" x1="0%" y1="100%" x2="56.3%" y2="0%"><stop offset="14.444444444444446%" stop-color="#af4b6d" stop-opacity="1"></stop><stop offset="85.55555555555554%" stop-color="#7c3e6b" stop-opacity="1"></stop></linearGradient></defs><defs><linearGradient id="grad2_5" x1="0%" y1="100%" x2="56.3%" y2="0%"><stop offset="14.444444444444446%" stop-color="#49335c" stop-opacity="1"></stop><stop offset="85.55555555555554%" stop-color="#7c3e6b" stop-opacity="1"></stop></linearGradient></defs><defs><linearGradient id="grad2_6" x1="0%" y1="100%" x2="56.3%" y2="0%"><stop offset="14.444444444444446%" stop-color="#49335c" stop-opacity="1"></stop><stop offset="85.55555555555554%" stop-color="#1d2540" stop-opacity="1"></stop></linearGradient></defs><defs><linearGradient id="grad2_7" x1="0%" y1="100%" x2="56.3%" y2="0%"><stop offset="14.444444444444446%" stop-color="#001220" stop-opacity="1"></stop><stop offset="85.55555555555554%" stop-color="#1d2540" stop-opacity="1"></stop></linearGradient></defs><g transform="translate(960, 540)"><path d="M-513 0C-499.4 -89.4 -485.8 -178.9 -444.3 -256.5C-402.7 -334.1 -333.2 -400 -254.5 -440.8C-175.8 -481.6 -87.9 -497.3 0 -513L0 0Z" fill="#0c1c30"></path><path d="M-448.9 0C-437 -78.2 -425.1 -156.5 -388.7 -224.4C-352.4 -292.4 -291.6 -350 -222.7 -385.7C-153.8 -421.4 -76.9 -435.1 0 -448.9L0 0Z" fill="#312c4f"></path><path d="M-384.7 0C-374.6 -67.1 -364.4 -134.1 -333.2 -192.4C-302 -250.6 -249.9 -300 -190.9 -330.6C-131.8 -361.2 -65.9 -373 0 -384.7L0 0Z" fill="#623965"></path><path d="M-320.6 0C-312.1 -55.9 -303.6 -111.8 -277.7 -160.3C-251.7 -208.8 -208.3 -250 -159.1 -275.5C-109.9 -301 -54.9 -310.8 0 -320.6L0 0Z" fill="#96446e"></path><path d="M-256.5 0C-249.7 -44.7 -242.9 -89.4 -222.1 -128.3C-201.4 -167.1 -166.6 -200 -127.3 -220.4C-87.9 -240.8 -43.9 -248.6 0 -256.5L0 0Z" fill="#c55469"></path><path d="M-192.4 0C-187.3 -33.5 -182.2 -67.1 -166.6 -96.2C-151 -125.3 -125 -150 -95.4 -165.3C-65.9 -180.6 -33 -186.5 0 -192.4L0 0Z" fill="#e9705a"></path><path d="M-128.2 0C-124.9 -22.4 -121.5 -44.7 -111.1 -64.1C-100.7 -83.5 -83.3 -100 -63.6 -110.2C-43.9 -120.4 -22 -124.3 0 -128.2L0 0Z" fill="#fa9845"></path><path d="M-64.1 0C-62.4 -11.2 -60.7 -22.4 -55.5 -32.1C-50.3 -41.8 -41.7 -50 -31.8 -55.1C-22 -60.2 -11 -62.2 0 -64.1L0 0Z" fill="#fbae3c"></path></g><g transform="translate(0, 0)"><path d="M513 0C453 62.3 392.9 124.6 357.7 206.5C322.4 288.4 312 389.9 256.5 444.3C201 498.6 100.5 505.8 0 513L0 0Z" fill="#0c1c30"></path><path d="M448.9 0C396.3 54.5 343.8 109 313 180.7C282.1 252.4 273 341.2 224.4 388.7C175.9 436.3 87.9 442.6 0 448.9L0 0Z" fill="#312c4f"></path><path d="M384.8 0C339.7 46.7 294.7 93.4 268.3 154.9C241.8 216.3 234 292.4 192.4 333.2C150.8 374 75.4 379.4 0 384.8L0 0Z" fill="#623965"></path><path d="M320.6 0C283.1 38.9 245.6 77.9 223.5 129.1C201.5 180.3 195 243.7 160.3 277.7C125.6 311.6 62.8 316.1 0 320.6L0 0Z" fill="#96446e"></path><path d="M256.5 0C226.5 31.1 196.5 62.3 178.8 103.2C161.2 144.2 156 195 128.3 222.1C100.5 249.3 50.3 252.9 0 256.5L0 0Z" fill="#c55469"></path><path d="M192.4 0C169.9 23.4 147.3 46.7 134.1 77.4C120.9 108.2 117 146.2 96.2 166.6C75.4 187 37.7 189.7 0 192.4L0 0Z" fill="#e9705a"></path><path d="M128.3 0C113.2 15.6 98.2 31.1 89.4 51.6C80.6 72.1 78 97.5 64.1 111.1C50.3 124.7 25.1 126.5 0 128.3L0 0Z" fill="#fa9845"></path><path d="M64.1 0C56.6 7.8 49.1 15.6 44.7 25.8C40.3 36.1 39 48.7 32.1 55.5C25.1 62.3 12.6 63.2 0 64.1L0 0Z" fill="#fbae3c"></path></g></svg>