<svg id="visual" viewBox="0 0 900 600" width="900" height="600" xmlns="http://www.w3.org/2000/svg"
    xmlns:xlink="http://www.w3.org/1999/xlink" version="1.1">
    <path
        d="M0 61L13.7 58C27.3 55 54.7 49 82 46C109.3 43 136.7 43 163.8 41C191 39 218 35 245.2 35C272.3 35 299.7 39 327 44C354.3 49 381.7 55 409 55C436.3 55 463.7 49 491 44C518.3 39 545.7 35 573 31C600.3 27 627.7 23 654.8 22C682 21 709 23 736.2 27C763.3 31 790.7 37 818 39C845.3 41 872.7 39 886.3 38L900 37L900 0L886.3 0C872.7 0 845.3 0 818 0C790.7 0 763.3 0 736.2 0C709 0 682 0 654.8 0C627.7 0 600.3 0 573 0C545.7 0 518.3 0 491 0C463.7 0 436.3 0 409 0C381.7 0 354.3 0 327 0C299.7 0 272.3 0 245.2 0C218 0 191 0 163.8 0C136.7 0 109.3 0 82 0C54.7 0 27.3 0 13.7 0L0 0Z"
        fill="#001220"></path>
    <path
        d="M0 79L13.7 77C27.3 75 54.7 71 82 71C109.3 71 136.7 75 163.8 76C191 77 218 75 245.2 78C272.3 81 299.7 89 327 90C354.3 91 381.7 85 409 79C436.3 73 463.7 67 491 68C518.3 69 545.7 77 573 78C600.3 79 627.7 73 654.8 66C682 59 709 51 736.2 51C763.3 51 790.7 59 818 67C845.3 75 872.7 83 886.3 87L900 91L900 35L886.3 36C872.7 37 845.3 39 818 37C790.7 35 763.3 29 736.2 25C709 21 682 19 654.8 20C627.7 21 600.3 25 573 29C545.7 33 518.3 37 491 42C463.7 47 436.3 53 409 53C381.7 53 354.3 47 327 42C299.7 37 272.3 33 245.2 33C218 33 191 37 163.8 39C136.7 41 109.3 41 82 44C54.7 47 27.3 53 13.7 56L0 59Z"
        fill="#07203d"></path>
    <path
        d="M0 193L13.7 186C27.3 179 54.7 165 82 176C109.3 187 136.7 223 163.8 220C191 217 218 175 245.2 170C272.3 165 299.7 197 327 211C354.3 225 381.7 221 409 215C436.3 209 463.7 201 491 199C518.3 197 545.7 201 573 198C600.3 195 627.7 185 654.8 175C682 165 709 155 736.2 149C763.3 143 790.7 141 818 140C845.3 139 872.7 139 886.3 139L900 139L900 89L886.3 85C872.7 81 845.3 73 818 65C790.7 57 763.3 49 736.2 49C709 49 682 57 654.8 64C627.7 71 600.3 77 573 76C545.7 75 518.3 67 491 66C463.7 65 436.3 71 409 77C381.7 83 354.3 89 327 88C299.7 87 272.3 79 245.2 76C218 73 191 75 163.8 74C136.7 73 109.3 69 82 69C54.7 69 27.3 73 13.7 75L0 77Z"
        fill="#242a59"></path>
    <path
        d="M0 241L13.7 237C27.3 233 54.7 225 82 234C109.3 243 136.7 269 163.8 267C191 265 218 235 245.2 228C272.3 221 299.7 237 327 250C354.3 263 381.7 273 409 276C436.3 279 463.7 275 491 270C518.3 265 545.7 259 573 254C600.3 249 627.7 245 654.8 240C682 235 709 229 736.2 226C763.3 223 790.7 223 818 217C845.3 211 872.7 199 886.3 193L900 187L900 137L886.3 137C872.7 137 845.3 137 818 138C790.7 139 763.3 141 736.2 147C709 153 682 163 654.8 173C627.7 183 600.3 193 573 196C545.7 199 518.3 195 491 197C463.7 199 436.3 207 409 213C381.7 219 354.3 223 327 209C299.7 195 272.3 163 245.2 168C218 173 191 215 163.8 218C136.7 221 109.3 185 82 174C54.7 163 27.3 177 13.7 184L0 191Z"
        fill="#4c2f70"></path>
    <path
        d="M0 301L13.7 299C27.3 297 54.7 293 82 298C109.3 303 136.7 317 163.8 313C191 309 218 287 245.2 283C272.3 279 299.7 293 327 306C354.3 319 381.7 331 409 334C436.3 337 463.7 331 491 325C518.3 319 545.7 313 573 307C600.3 301 627.7 295 654.8 291C682 287 709 285 736.2 280C763.3 275 790.7 267 818 262C845.3 257 872.7 255 886.3 254L900 253L900 185L886.3 191C872.7 197 845.3 209 818 215C790.7 221 763.3 221 736.2 224C709 227 682 233 654.8 238C627.7 243 600.3 247 573 252C545.7 257 518.3 263 491 268C463.7 273 436.3 277 409 274C381.7 271 354.3 261 327 248C299.7 235 272.3 219 245.2 226C218 233 191 263 163.8 265C136.7 267 109.3 241 82 232C54.7 223 27.3 231 13.7 235L0 239Z"
        fill="#792e7e"></path>
    <path
        d="M0 361L13.7 363C27.3 365 54.7 369 82 373C109.3 377 136.7 381 163.8 371C191 361 218 337 245.2 339C272.3 341 299.7 369 327 381C354.3 393 381.7 389 409 383C436.3 377 463.7 369 491 368C518.3 367 545.7 373 573 370C600.3 367 627.7 355 654.8 354C682 353 709 363 736.2 358C763.3 353 790.7 333 818 327C845.3 321 872.7 329 886.3 333L900 337L900 251L886.3 252C872.7 253 845.3 255 818 260C790.7 265 763.3 273 736.2 278C709 283 682 285 654.8 289C627.7 293 600.3 299 573 305C545.7 311 518.3 317 491 323C463.7 329 436.3 335 409 332C381.7 329 354.3 317 327 304C299.7 291 272.3 277 245.2 281C218 285 191 307 163.8 311C136.7 315 109.3 301 82 296C54.7 291 27.3 295 13.7 297L0 299Z"
        fill="#a92481"></path>
    <path
        d="M0 499L13.7 499C27.3 499 54.7 499 82 497C109.3 495 136.7 491 163.8 489C191 487 218 487 245.2 494C272.3 501 299.7 515 327 514C354.3 513 381.7 497 409 494C436.3 491 463.7 501 491 508C518.3 515 545.7 519 573 515C600.3 511 627.7 499 654.8 500C682 501 709 515 736.2 515C763.3 515 790.7 501 818 496C845.3 491 872.7 495 886.3 497L900 499L900 335L886.3 331C872.7 327 845.3 319 818 325C790.7 331 763.3 351 736.2 356C709 361 682 351 654.8 352C627.7 353 600.3 365 573 368C545.7 371 518.3 365 491 366C463.7 367 436.3 375 409 381C381.7 387 354.3 391 327 379C299.7 367 272.3 339 245.2 337C218 335 191 359 163.8 369C136.7 379 109.3 375 82 371C54.7 367 27.3 363 13.7 361L0 359Z"
        fill="#d70e79"></path>
    <path
        d="M0 601L13.7 601C27.3 601 54.7 601 82 601C109.3 601 136.7 601 163.8 601C191 601 218 601 245.2 601C272.3 601 299.7 601 327 601C354.3 601 381.7 601 409 601C436.3 601 463.7 601 491 601C518.3 601 545.7 601 573 601C600.3 601 627.7 601 654.8 601C682 601 709 601 736.2 601C763.3 601 790.7 601 818 601C845.3 601 872.7 601 886.3 601L900 601L900 497L886.3 495C872.7 493 845.3 489 818 494C790.7 499 763.3 513 736.2 513C709 513 682 499 654.8 498C627.7 497 600.3 509 573 513C545.7 517 518.3 513 491 506C463.7 499 436.3 489 409 492C381.7 495 354.3 511 327 512C299.7 513 272.3 499 245.2 492C218 485 191 485 163.8 487C136.7 489 109.3 493 82 495C54.7 497 27.3 497 13.7 497L0 497Z"
        fill="#ff0066"></path>
</svg>